<mxfile host="65bd71144e">
    <diagram id="NsdAzAzA97Gr1-mYg51P" name="Page-1">
        <mxGraphModel dx="1039" dy="776" grid="1" gridSize="10" guides="1" tooltips="1" connect="1" arrows="1" fold="1" page="1" pageScale="1" pageWidth="850" pageHeight="1100" math="0" shadow="0">
            <root>
                <mxCell id="0"/>
                <mxCell id="1" parent="0"/>
                <mxCell id="2" value="P.1.0&lt;div&gt;Login&lt;/div&gt;" style="shape=ellipse;html=1;dashed=0;whiteSpace=wrap;aspect=fixed;perimeter=ellipsePerimeter;" parent="1" vertex="1">
                    <mxGeometry x="340" y="80" width="140" height="140" as="geometry"/>
                </mxCell>
                <mxCell id="3" value="P.3.0&lt;div&gt;Data Master&lt;/div&gt;" style="shape=ellipse;html=1;dashed=0;whiteSpace=wrap;aspect=fixed;perimeter=ellipsePerimeter;" parent="1" vertex="1">
                    <mxGeometry x="340" y="440" width="140" height="140" as="geometry"/>
                </mxCell>
                <mxCell id="4" value="P.4.0&lt;div&gt;Data&amp;nbsp;&lt;span style=&quot;color: rgb(63, 63, 63); background-color: transparent;&quot;&gt;Pengaturan&lt;/span&gt;&lt;/div&gt;&lt;div&gt;dan Kamar&lt;/div&gt;" style="shape=ellipse;html=1;dashed=0;whiteSpace=wrap;aspect=fixed;perimeter=ellipsePerimeter;" parent="1" vertex="1">
                    <mxGeometry x="340" y="640" width="140" height="140" as="geometry"/>
                </mxCell>
                <mxCell id="5" value="P.5.0&lt;div&gt;Data&lt;/div&gt;&lt;div&gt;Kode Promo&lt;/div&gt;" style="shape=ellipse;html=1;dashed=0;whiteSpace=wrap;aspect=fixed;perimeter=ellipsePerimeter;" parent="1" vertex="1">
                    <mxGeometry x="490" y="10" width="140" height="140" as="geometry"/>
                </mxCell>
                <mxCell id="7" value="P.6.0&lt;div&gt;Reservasi&lt;/div&gt;" style="shape=ellipse;html=1;dashed=0;whiteSpace=wrap;aspect=fixed;perimeter=ellipsePerimeter;" parent="1" vertex="1">
                    <mxGeometry x="340" y="810" width="140" height="140" as="geometry"/>
                </mxCell>
                <mxCell id="8" value="P.7.0&lt;div&gt;Pembayaran&lt;/div&gt;" style="shape=ellipse;html=1;dashed=0;whiteSpace=wrap;aspect=fixed;perimeter=ellipsePerimeter;" parent="1" vertex="1">
                    <mxGeometry x="340" y="990" width="140" height="140" as="geometry"/>
                </mxCell>
                <mxCell id="9" value="Users" style="html=1;dashed=0;whiteSpace=wrap;shape=partialRectangle;right=0;left=0;" parent="1" vertex="1">
                    <mxGeometry x="160" y="135" width="100" height="30" as="geometry"/>
                </mxCell>
                <mxCell id="10" value="" style="endArrow=classic;html=1;rounded=0;curved=0;jumpStyle=arc;entryX=0.5;entryY=0;entryDx=0;entryDy=0;exitX=0.071;exitY=0.214;exitDx=0;exitDy=0;exitPerimeter=0;" parent="1" source="2" target="9" edge="1">
                    <mxGeometry width="50" height="50" relative="1" as="geometry">
                        <mxPoint x="320" y="90" as="sourcePoint"/>
                        <mxPoint x="235" y="40" as="targetPoint"/>
                        <Array as="points">
                            <mxPoint x="210" y="110"/>
                        </Array>
                    </mxGeometry>
                </mxCell>
                <mxCell id="29" value="Data login" style="edgeLabel;html=1;align=center;verticalAlign=middle;resizable=0;points=[];" parent="10" vertex="1" connectable="0">
                    <mxGeometry x="-0.048" y="1" relative="1" as="geometry">
                        <mxPoint as="offset"/>
                    </mxGeometry>
                </mxCell>
                <mxCell id="11" value="" style="endArrow=classic;html=1;rounded=0;curved=0;jumpStyle=arc;exitX=0.5;exitY=1;exitDx=0;exitDy=0;entryX=0.042;entryY=0.71;entryDx=0;entryDy=0;entryPerimeter=0;" parent="1" source="9" target="2" edge="1">
                    <mxGeometry width="50" height="50" relative="1" as="geometry">
                        <mxPoint x="240" y="210" as="sourcePoint"/>
                        <mxPoint x="290" y="160" as="targetPoint"/>
                        <Array as="points">
                            <mxPoint x="210" y="180"/>
                        </Array>
                    </mxGeometry>
                </mxCell>
                <mxCell id="30" value="Data Login" style="edgeLabel;html=1;align=center;verticalAlign=middle;resizable=0;points=[];" parent="11" vertex="1" connectable="0">
                    <mxGeometry x="-0.1106" y="1" relative="1" as="geometry">
                        <mxPoint x="8" as="offset"/>
                    </mxGeometry>
                </mxCell>
                <mxCell id="12" value="" style="endArrow=classic;html=1;rounded=0;curved=0;jumpStyle=arc;entryX=0.388;entryY=1.016;entryDx=0;entryDy=0;entryPerimeter=0;exitX=0;exitY=0;exitDx=0;exitDy=0;" parent="1" source="31" target="9" edge="1">
                    <mxGeometry width="50" height="50" relative="1" as="geometry">
                        <mxPoint x="220" y="280" as="sourcePoint"/>
                        <mxPoint x="270" y="230" as="targetPoint"/>
                        <Array as="points">
                            <mxPoint x="199" y="280"/>
                        </Array>
                    </mxGeometry>
                </mxCell>
                <mxCell id="33" value="Data daftar" style="edgeLabel;html=1;align=center;verticalAlign=middle;resizable=0;points=[];" parent="12" vertex="1" connectable="0">
                    <mxGeometry x="-0.1846" y="-1" relative="1" as="geometry">
                        <mxPoint x="31" as="offset"/>
                    </mxGeometry>
                </mxCell>
                <mxCell id="13" value="" style="endArrow=classic;html=1;rounded=0;curved=0;jumpStyle=arc;entryX=0.067;entryY=0.228;entryDx=0;entryDy=0;entryPerimeter=0;exitX=0.25;exitY=1;exitDx=0;exitDy=0;" parent="1" source="9" target="31" edge="1">
                    <mxGeometry width="50" height="50" relative="1" as="geometry">
                        <mxPoint x="185" y="170" as="sourcePoint"/>
                        <mxPoint x="345.74" y="290.19999999999993" as="targetPoint"/>
                        <Array as="points">
                            <mxPoint x="185" y="291"/>
                        </Array>
                    </mxGeometry>
                </mxCell>
                <mxCell id="34" value="Data daftar" style="edgeLabel;html=1;align=center;verticalAlign=middle;resizable=0;points=[];" parent="13" vertex="1" connectable="0">
                    <mxGeometry x="0.3076" relative="1" as="geometry">
                        <mxPoint x="30" as="offset"/>
                    </mxGeometry>
                </mxCell>
                <mxCell id="14" value="" style="endArrow=classic;html=1;rounded=0;curved=0;jumpStyle=arc;exitX=0.75;exitY=0;exitDx=0;exitDy=0;entryX=0;entryY=0;entryDx=0;entryDy=0;" parent="1" source="35" target="2" edge="1">
                    <mxGeometry width="50" height="50" relative="1" as="geometry">
                        <mxPoint x="30" y="90" as="sourcePoint"/>
                        <mxPoint x="80" y="40" as="targetPoint"/>
                        <Array as="points">
                            <mxPoint x="105" y="100"/>
                        </Array>
                    </mxGeometry>
                </mxCell>
                <mxCell id="36" value="Data login admin" style="edgeLabel;html=1;align=center;verticalAlign=middle;resizable=0;points=[];" parent="14" vertex="1" connectable="0">
                    <mxGeometry x="-0.1441" relative="1" as="geometry">
                        <mxPoint x="39" as="offset"/>
                    </mxGeometry>
                </mxCell>
                <mxCell id="15" value="" style="endArrow=classic;html=1;rounded=0;curved=0;jumpStyle=arc;exitX=0.269;exitY=0.042;exitDx=0;exitDy=0;exitPerimeter=0;entryX=0.601;entryY=0.005;entryDx=0;entryDy=0;entryPerimeter=0;" parent="1" target="35" edge="1">
                    <mxGeometry width="50" height="50" relative="1" as="geometry">
                        <mxPoint x="377.65999999999997" y="87.88" as="sourcePoint"/>
                        <mxPoint x="80" y="202" as="targetPoint"/>
                        <Array as="points">
                            <mxPoint x="90" y="88"/>
                        </Array>
                    </mxGeometry>
                </mxCell>
                <mxCell id="37" value="Konfirmasi login admin" style="edgeLabel;html=1;align=center;verticalAlign=middle;resizable=0;points=[];" parent="15" vertex="1" connectable="0">
                    <mxGeometry x="0.0364" y="-1" relative="1" as="geometry">
                        <mxPoint x="41" as="offset"/>
                    </mxGeometry>
                </mxCell>
                <mxCell id="16" value="" style="endArrow=classic;html=1;rounded=0;curved=0;jumpStyle=arc;exitX=0;exitY=0.75;exitDx=0;exitDy=0;entryX=0.5;entryY=1;entryDx=0;entryDy=0;" parent="1" source="38" target="2" edge="1">
                    <mxGeometry width="50" height="50" relative="1" as="geometry">
                        <mxPoint x="560" y="150" as="sourcePoint"/>
                        <mxPoint x="610" y="100" as="targetPoint"/>
                        <Array as="points">
                            <mxPoint x="410" y="250"/>
                        </Array>
                    </mxGeometry>
                </mxCell>
                <mxCell id="39" value="Data login hotel organizer" style="edgeLabel;html=1;align=center;verticalAlign=middle;resizable=0;points=[];" parent="16" vertex="1" connectable="0">
                    <mxGeometry x="0.5637" relative="1" as="geometry">
                        <mxPoint x="81" as="offset"/>
                    </mxGeometry>
                </mxCell>
                <mxCell id="17" value="" style="endArrow=classic;html=1;rounded=0;curved=0;jumpStyle=arc;exitX=0.572;exitY=1.005;exitDx=0;exitDy=0;exitPerimeter=0;entryX=0;entryY=0.5;entryDx=0;entryDy=0;" parent="1" source="2" target="38" edge="1">
                    <mxGeometry width="50" height="50" relative="1" as="geometry">
                        <mxPoint x="474.58000000000004" y="139.36" as="sourcePoint"/>
                        <mxPoint x="645" y="210" as="targetPoint"/>
                        <Array as="points">
                            <mxPoint x="420" y="235"/>
                        </Array>
                    </mxGeometry>
                </mxCell>
                <mxCell id="40" value="Konfirmasi login hotel organizer" style="edgeLabel;html=1;align=center;verticalAlign=middle;resizable=0;points=[];" parent="17" vertex="1" connectable="0">
                    <mxGeometry x="-0.6201" y="1" relative="1" as="geometry">
                        <mxPoint x="67" y="1" as="offset"/>
                    </mxGeometry>
                </mxCell>
                <mxCell id="18" value="" style="endArrow=classic;html=1;rounded=0;curved=0;jumpStyle=arc;exitX=0.398;exitY=1.015;exitDx=0;exitDy=0;entryX=0.998;entryY=0.418;entryDx=0;entryDy=0;exitPerimeter=0;entryPerimeter=0;" parent="1" target="31" edge="1">
                    <mxGeometry width="50" height="50" relative="1" as="geometry">
                        <mxPoint x="649.8" y="259.75" as="sourcePoint"/>
                        <mxPoint x="480.1399999999999" y="317.93999999999994" as="targetPoint"/>
                        <Array as="points">
                            <mxPoint x="650" y="318"/>
                        </Array>
                    </mxGeometry>
                </mxCell>
                <mxCell id="41" value="Data daftar hotel organizer" style="edgeLabel;html=1;align=center;verticalAlign=middle;resizable=0;points=[];" parent="18" vertex="1" connectable="0">
                    <mxGeometry x="0.1532" y="-1" relative="1" as="geometry">
                        <mxPoint x="-10" y="1" as="offset"/>
                    </mxGeometry>
                </mxCell>
                <mxCell id="20" value="" style="endArrow=classic;html=1;rounded=0;curved=0;jumpStyle=arc;entryX=0.5;entryY=1;entryDx=0;entryDy=0;exitX=1;exitY=0.5;exitDx=0;exitDy=0;" parent="1" source="31" target="38" edge="1">
                    <mxGeometry width="50" height="50" relative="1" as="geometry">
                        <mxPoint x="420" y="250" as="sourcePoint"/>
                        <mxPoint x="610" y="240.75000000000006" as="targetPoint"/>
                        <Array as="points">
                            <mxPoint x="660" y="330"/>
                        </Array>
                    </mxGeometry>
                </mxCell>
                <mxCell id="42" value="&lt;span style=&quot;color: rgb(0, 0, 0);&quot;&gt;Konfirmasi daftar hotel organizer&lt;/span&gt;" style="edgeLabel;html=1;align=center;verticalAlign=middle;resizable=0;points=[];" parent="20" vertex="1" connectable="0">
                    <mxGeometry x="-0.3539" y="-1" relative="1" as="geometry">
                        <mxPoint x="8" y="-1" as="offset"/>
                    </mxGeometry>
                </mxCell>
                <mxCell id="21" value="" style="endArrow=classic;html=1;rounded=0;curved=0;jumpStyle=arc;exitX=0.144;exitY=1;exitDx=0;exitDy=0;exitPerimeter=0;entryX=0.5;entryY=0;entryDx=0;entryDy=0;" parent="1" source="9" target="3" edge="1">
                    <mxGeometry width="50" height="50" relative="1" as="geometry">
                        <mxPoint x="180" y="390" as="sourcePoint"/>
                        <mxPoint x="230" y="340" as="targetPoint"/>
                        <Array as="points">
                            <mxPoint x="174" y="420"/>
                            <mxPoint x="410" y="420"/>
                        </Array>
                    </mxGeometry>
                </mxCell>
                <mxCell id="43" value="Data user" style="edgeLabel;html=1;align=center;verticalAlign=middle;resizable=0;points=[];" parent="21" vertex="1" connectable="0">
                    <mxGeometry x="0.3113" relative="1" as="geometry">
                        <mxPoint x="21" as="offset"/>
                    </mxGeometry>
                </mxCell>
                <mxCell id="22" value="" style="endArrow=classic;html=1;rounded=0;curved=0;jumpStyle=arc;entryX=1;entryY=1;entryDx=0;entryDy=0;exitX=0.673;exitY=0.971;exitDx=0;exitDy=0;exitPerimeter=0;" parent="1" source="3" target="38" edge="1">
                    <mxGeometry width="50" height="50" relative="1" as="geometry">
                        <mxPoint x="434" y="580" as="sourcePoint"/>
                        <mxPoint x="530" y="620" as="targetPoint"/>
                        <Array as="points">
                            <mxPoint x="434" y="600"/>
                            <mxPoint x="740" y="600"/>
                            <mxPoint x="740" y="260"/>
                        </Array>
                    </mxGeometry>
                </mxCell>
                <mxCell id="121" value="Info data user (profile)" style="edgeLabel;html=1;align=center;verticalAlign=middle;resizable=0;points=[];" parent="22" vertex="1" connectable="0">
                    <mxGeometry x="-0.5879" relative="1" as="geometry">
                        <mxPoint as="offset"/>
                    </mxGeometry>
                </mxCell>
                <mxCell id="23" value="" style="endArrow=classic;html=1;rounded=0;curved=0;jumpStyle=arc;exitX=1;exitY=0.799;exitDx=0;exitDy=0;entryX=0.606;entryY=0.991;entryDx=0;entryDy=0;entryPerimeter=0;exitPerimeter=0;" parent="1" source="38" target="3" edge="1">
                    <mxGeometry width="50" height="50" relative="1" as="geometry">
                        <mxPoint x="715" y="238" as="sourcePoint"/>
                        <mxPoint x="424.84000000000003" y="580.34" as="targetPoint"/>
                        <Array as="points">
                            <mxPoint x="750" y="250"/>
                            <mxPoint x="750" y="613"/>
                            <mxPoint x="425" y="613"/>
                        </Array>
                    </mxGeometry>
                </mxCell>
                <mxCell id="122" value="Data user (profile)" style="edgeLabel;html=1;align=center;verticalAlign=middle;resizable=0;points=[];" parent="23" vertex="1" connectable="0">
                    <mxGeometry x="0.6319" relative="1" as="geometry">
                        <mxPoint x="13" y="-1" as="offset"/>
                    </mxGeometry>
                </mxCell>
                <mxCell id="24" value="" style="endArrow=classic;html=1;rounded=0;curved=0;jumpStyle=arc;entryX=0.924;entryY=0.238;entryDx=0;entryDy=0;entryPerimeter=0;exitX=1;exitY=0;exitDx=0;exitDy=0;" parent="1" source="38" edge="1">
                    <mxGeometry width="50" height="50" relative="1" as="geometry">
                        <mxPoint x="813" y="128" as="sourcePoint"/>
                        <mxPoint x="469.36" y="671.32" as="targetPoint"/>
                        <Array as="points">
                            <mxPoint x="793" y="210"/>
                            <mxPoint x="793" y="671"/>
                        </Array>
                    </mxGeometry>
                </mxCell>
                <mxCell id="165" value="Data pengaturan" style="edgeLabel;html=1;align=center;verticalAlign=middle;resizable=0;points=[];" parent="24" vertex="1" connectable="0">
                    <mxGeometry x="0.7555" y="-1" relative="1" as="geometry">
                        <mxPoint x="22" y="2" as="offset"/>
                    </mxGeometry>
                </mxCell>
                <mxCell id="25" value="" style="endArrow=classic;html=1;rounded=0;curved=0;jumpStyle=arc;entryX=0.5;entryY=0;entryDx=0;entryDy=0;exitX=0.5;exitY=0;exitDx=0;exitDy=0;" parent="1" source="7" target="38" edge="1">
                    <mxGeometry width="50" height="50" relative="1" as="geometry">
                        <mxPoint x="850" y="800" as="sourcePoint"/>
                        <mxPoint x="1080" y="160" as="targetPoint"/>
                        <Array as="points">
                            <mxPoint x="410" y="790"/>
                            <mxPoint x="850" y="790"/>
                            <mxPoint x="850" y="160"/>
                            <mxPoint x="660" y="160"/>
                        </Array>
                    </mxGeometry>
                </mxCell>
                <mxCell id="200" value="Info data reservasi" style="edgeLabel;html=1;align=center;verticalAlign=middle;resizable=0;points=[];" parent="25" vertex="1" connectable="0">
                    <mxGeometry x="-0.7311" y="1" relative="1" as="geometry">
                        <mxPoint x="33" as="offset"/>
                    </mxGeometry>
                </mxCell>
                <mxCell id="26" value="" style="endArrow=classic;html=1;rounded=0;curved=0;jumpStyle=arc;exitX=0.25;exitY=0;exitDx=0;exitDy=0;entryX=0.998;entryY=0.577;entryDx=0;entryDy=0;entryPerimeter=0;" parent="1" edge="1">
                    <mxGeometry width="50" height="50" relative="1" as="geometry">
                        <mxPoint x="635" y="215" as="sourcePoint"/>
                        <mxPoint x="479.72" y="1072.78" as="targetPoint"/>
                        <Array as="points">
                            <mxPoint x="635" y="132"/>
                            <mxPoint x="880" y="132"/>
                            <mxPoint x="880" y="1072"/>
                        </Array>
                    </mxGeometry>
                </mxCell>
                <mxCell id="220" value="Update data transaksi" style="edgeLabel;html=1;align=center;verticalAlign=middle;resizable=0;points=[];" parent="26" vertex="1" connectable="0">
                    <mxGeometry x="0.8327" y="-2" relative="1" as="geometry">
                        <mxPoint x="29" y="3" as="offset"/>
                    </mxGeometry>
                </mxCell>
                <mxCell id="31" value="P.2.0&lt;div&gt;Daftar&lt;/div&gt;" style="shape=ellipse;html=1;dashed=0;whiteSpace=wrap;aspect=fixed;perimeter=ellipsePerimeter;" parent="1" vertex="1">
                    <mxGeometry x="340" y="260" width="140" height="140" as="geometry"/>
                </mxCell>
                <mxCell id="35" value="Admin" style="html=1;dashed=0;whiteSpace=wrap;" parent="1" vertex="1">
                    <mxGeometry x="30" y="200" width="100" height="50" as="geometry"/>
                </mxCell>
                <mxCell id="38" value="Hotel Organizer" style="html=1;dashed=0;whiteSpace=wrap;" parent="1" vertex="1">
                    <mxGeometry x="610" y="210" width="100" height="50" as="geometry"/>
                </mxCell>
                <mxCell id="44" value="" style="endArrow=classic;html=1;rounded=0;curved=0;jumpStyle=arc;entryX=0;entryY=1;entryDx=0;entryDy=0;exitX=0.432;exitY=0;exitDx=0;exitDy=0;exitPerimeter=0;" parent="1" target="9" edge="1">
                    <mxGeometry width="50" height="50" relative="1" as="geometry">
                        <mxPoint x="397.48" y="440" as="sourcePoint"/>
                        <mxPoint x="167.79999999999995" y="165.17999999999995" as="targetPoint"/>
                        <Array as="points">
                            <mxPoint x="160" y="440"/>
                        </Array>
                    </mxGeometry>
                </mxCell>
                <mxCell id="87" value="&lt;span style=&quot;color: rgb(0, 0, 0);&quot;&gt;Data user&lt;/span&gt;" style="edgeLabel;html=1;align=center;verticalAlign=middle;resizable=0;points=[];" parent="44" vertex="1" connectable="0">
                    <mxGeometry x="-0.4938" relative="1" as="geometry">
                        <mxPoint x="5" as="offset"/>
                    </mxGeometry>
                </mxCell>
                <mxCell id="45" value="" style="endArrow=classic;html=1;rounded=0;curved=0;jumpStyle=arc;exitX=0.001;exitY=0.338;exitDx=0;exitDy=0;entryX=0.685;entryY=0.031;entryDx=0;entryDy=0;entryPerimeter=0;exitPerimeter=0;" parent="1" source="90" target="3" edge="1">
                    <mxGeometry width="50" height="50" relative="1" as="geometry">
                        <mxPoint x="500" y="410" as="sourcePoint"/>
                        <mxPoint x="550" y="360" as="targetPoint"/>
                        <Array as="points">
                            <mxPoint x="560" y="410"/>
                            <mxPoint x="436" y="410"/>
                        </Array>
                    </mxGeometry>
                </mxCell>
                <mxCell id="91" value="Data hotel" style="edgeLabel;html=1;align=center;verticalAlign=middle;resizable=0;points=[];" parent="45" vertex="1" connectable="0">
                    <mxGeometry x="0.4258" y="-1" relative="1" as="geometry">
                        <mxPoint x="41" as="offset"/>
                    </mxGeometry>
                </mxCell>
                <mxCell id="46" value="" style="endArrow=classic;html=1;rounded=0;curved=0;jumpStyle=arc;exitX=0.5;exitY=0;exitDx=0;exitDy=0;entryX=0;entryY=1;entryDx=0;entryDy=0;" parent="1" source="124" target="2" edge="1">
                    <mxGeometry width="50" height="50" relative="1" as="geometry">
                        <mxPoint x="280" y="230" as="sourcePoint"/>
                        <mxPoint x="330" y="180" as="targetPoint"/>
                        <Array as="points">
                            <mxPoint x="260" y="200"/>
                        </Array>
                    </mxGeometry>
                </mxCell>
                <mxCell id="125" value="Data role" style="edgeLabel;html=1;align=center;verticalAlign=middle;resizable=0;points=[];" parent="46" vertex="1" connectable="0">
                    <mxGeometry x="-0.0498" relative="1" as="geometry">
                        <mxPoint x="1" as="offset"/>
                    </mxGeometry>
                </mxCell>
                <mxCell id="50" value="" style="endArrow=classic;html=1;rounded=0;curved=0;jumpStyle=arc;entryX=1;entryY=1;entryDx=0;entryDy=0;exitX=0.23;exitY=0.079;exitDx=0;exitDy=0;exitPerimeter=0;" parent="1" source="3" target="35" edge="1">
                    <mxGeometry width="50" height="50" relative="1" as="geometry">
                        <mxPoint x="369.53999999999996" y="451.0799999999999" as="sourcePoint"/>
                        <mxPoint x="119.80000000000001" y="251.7" as="targetPoint"/>
                        <Array as="points">
                            <mxPoint x="130" y="451"/>
                        </Array>
                    </mxGeometry>
                </mxCell>
                <mxCell id="88" value="Info data user" style="edgeLabel;html=1;align=center;verticalAlign=middle;resizable=0;points=[];" parent="50" vertex="1" connectable="0">
                    <mxGeometry x="-0.3522" relative="1" as="geometry">
                        <mxPoint x="-19" as="offset"/>
                    </mxGeometry>
                </mxCell>
                <mxCell id="51" value="" style="endArrow=classic;html=1;rounded=0;curved=0;jumpStyle=arc;entryX=0;entryY=0.25;entryDx=0;entryDy=0;exitX=0.831;exitY=0.123;exitDx=0;exitDy=0;exitPerimeter=0;" parent="1" source="3" target="93" edge="1">
                    <mxGeometry width="50" height="50" relative="1" as="geometry">
                        <mxPoint x="510" y="520" as="sourcePoint"/>
                        <mxPoint x="560" y="470" as="targetPoint"/>
                    </mxGeometry>
                </mxCell>
                <mxCell id="94" value="&lt;span style=&quot;color: rgb(0, 0, 0);&quot;&gt;Data tempat tidur&lt;/span&gt;" style="edgeLabel;html=1;align=center;verticalAlign=middle;resizable=0;points=[];" parent="51" vertex="1" connectable="0">
                    <mxGeometry x="-0.159" relative="1" as="geometry">
                        <mxPoint x="18" as="offset"/>
                    </mxGeometry>
                </mxCell>
                <mxCell id="52" value="" style="endArrow=classic;html=1;rounded=0;curved=0;jumpStyle=arc;entryX=0.319;entryY=-0.008;entryDx=0;entryDy=0;entryPerimeter=0;exitX=1;exitY=0.5;exitDx=0;exitDy=0;" parent="1" source="8" target="38" edge="1">
                    <mxGeometry width="50" height="50" relative="1" as="geometry">
                        <mxPoint x="1010" y="260" as="sourcePoint"/>
                        <mxPoint x="1090" y="170" as="targetPoint"/>
                        <Array as="points">
                            <mxPoint x="870" y="1060"/>
                            <mxPoint x="870" y="140"/>
                            <mxPoint x="642" y="140"/>
                        </Array>
                    </mxGeometry>
                </mxCell>
                <mxCell id="219" value="Info data transaksi" style="edgeLabel;html=1;align=center;verticalAlign=middle;resizable=0;points=[];" parent="52" vertex="1" connectable="0">
                    <mxGeometry x="-0.8018" y="2" relative="1" as="geometry">
                        <mxPoint x="8" as="offset"/>
                    </mxGeometry>
                </mxCell>
                <mxCell id="53" value="" style="endArrow=classic;html=1;rounded=0;curved=0;jumpStyle=arc;entryX=-0.001;entryY=0.517;entryDx=0;entryDy=0;exitX=0.5;exitY=1;exitDx=0;exitDy=0;entryPerimeter=0;" parent="1" source="35" target="3" edge="1">
                    <mxGeometry width="50" height="50" relative="1" as="geometry">
                        <mxPoint x="80" y="254" as="sourcePoint"/>
                        <mxPoint x="340.0000000000001" y="514" as="targetPoint"/>
                        <Array as="points">
                            <mxPoint x="80" y="514"/>
                        </Array>
                    </mxGeometry>
                </mxCell>
                <mxCell id="110" value="Data fasilitas" style="edgeLabel;html=1;align=center;verticalAlign=middle;resizable=0;points=[];" parent="53" vertex="1" connectable="0">
                    <mxGeometry x="0.4335" y="1" relative="1" as="geometry">
                        <mxPoint x="16" as="offset"/>
                    </mxGeometry>
                </mxCell>
                <mxCell id="56" value="" style="endArrow=classic;html=1;rounded=0;curved=0;jumpStyle=arc;exitX=0.74;exitY=0.056;exitDx=0;exitDy=0;exitPerimeter=0;entryX=-0.002;entryY=0.685;entryDx=0;entryDy=0;entryPerimeter=0;" parent="1" source="3" target="90" edge="1">
                    <mxGeometry width="50" height="50" relative="1" as="geometry">
                        <mxPoint x="530" y="450" as="sourcePoint"/>
                        <mxPoint x="580" y="400" as="targetPoint"/>
                        <Array as="points">
                            <mxPoint x="444" y="420"/>
                        </Array>
                    </mxGeometry>
                </mxCell>
                <mxCell id="92" value="Data hotel" style="edgeLabel;html=1;align=center;verticalAlign=middle;resizable=0;points=[];" parent="56" vertex="1" connectable="0">
                    <mxGeometry x="-0.4314" y="-1" relative="1" as="geometry">
                        <mxPoint x="32" as="offset"/>
                    </mxGeometry>
                </mxCell>
                <mxCell id="57" value="" style="endArrow=classic;html=1;rounded=0;curved=0;jumpStyle=arc;exitX=0;exitY=0.25;exitDx=0;exitDy=0;entryX=0.891;entryY=0.199;entryDx=0;entryDy=0;entryPerimeter=0;" parent="1" source="178" target="5" edge="1">
                    <mxGeometry width="50" height="50" relative="1" as="geometry">
                        <mxPoint x="1100" y="80" as="sourcePoint"/>
                        <mxPoint x="952.4000000000001" y="38.200000000000045" as="targetPoint"/>
                    </mxGeometry>
                </mxCell>
                <mxCell id="179" value="Data kode promo" style="edgeLabel;html=1;align=center;verticalAlign=middle;resizable=0;points=[];" parent="57" vertex="1" connectable="0">
                    <mxGeometry x="-0.3147" relative="1" as="geometry">
                        <mxPoint x="-15" as="offset"/>
                    </mxGeometry>
                </mxCell>
                <mxCell id="58" value="" style="endArrow=classic;html=1;rounded=0;curved=0;jumpStyle=arc;exitX=0.698;exitY=0.99;exitDx=0;exitDy=0;exitPerimeter=0;entryX=0.027;entryY=0.341;entryDx=0;entryDy=0;entryPerimeter=0;" parent="1" source="35" target="3" edge="1">
                    <mxGeometry width="50" height="50" relative="1" as="geometry">
                        <mxPoint x="98.49999999999989" y="228.79999999999995" as="sourcePoint"/>
                        <mxPoint x="340" y="488" as="targetPoint"/>
                        <Array as="points">
                            <mxPoint x="100" y="488"/>
                        </Array>
                    </mxGeometry>
                </mxCell>
                <mxCell id="101" value="&lt;span style=&quot;color: rgb(0, 0, 0);&quot;&gt;Data tempat tidur&lt;/span&gt;" style="edgeLabel;html=1;align=center;verticalAlign=middle;resizable=0;points=[];" parent="58" vertex="1" connectable="0">
                    <mxGeometry x="0.4507" y="1" relative="1" as="geometry">
                        <mxPoint x="7" as="offset"/>
                    </mxGeometry>
                </mxCell>
                <mxCell id="62" value="" style="endArrow=classic;html=1;rounded=0;curved=0;jumpStyle=arc;entryX=0.805;entryY=1.004;entryDx=0;entryDy=0;entryPerimeter=0;" parent="1" target="35" edge="1">
                    <mxGeometry width="50" height="50" relative="1" as="geometry">
                        <mxPoint x="350" y="475" as="sourcePoint"/>
                        <mxPoint x="110.5" y="255.95000000000005" as="targetPoint"/>
                        <Array as="points">
                            <mxPoint x="110" y="475"/>
                        </Array>
                    </mxGeometry>
                </mxCell>
                <mxCell id="100" value="Info data tempat tidur" style="edgeLabel;html=1;align=center;verticalAlign=middle;resizable=0;points=[];" parent="62" vertex="1" connectable="0">
                    <mxGeometry x="0.1345" y="-1" relative="1" as="geometry">
                        <mxPoint x="118" y="23" as="offset"/>
                    </mxGeometry>
                </mxCell>
                <mxCell id="63" value="" style="endArrow=classic;html=1;rounded=0;curved=0;jumpStyle=arc;entryX=0.899;entryY=0.198;entryDx=0;entryDy=0;entryPerimeter=0;exitX=0.001;exitY=0.587;exitDx=0;exitDy=0;exitPerimeter=0;" parent="1" source="93" target="3" edge="1">
                    <mxGeometry width="50" height="50" relative="1" as="geometry">
                        <mxPoint x="540" y="560" as="sourcePoint"/>
                        <mxPoint x="590" y="510" as="targetPoint"/>
                    </mxGeometry>
                </mxCell>
                <mxCell id="96" value="&lt;span style=&quot;font-family: monospace; font-size: 0px; text-align: start; background-color: rgb(251, 251, 251);&quot;&gt;%3CmxGraphModel%3E%3Croot%3E%3CmxCell%20id%3D%220%22%2F%3E%3CmxCell%20id%3D%221%22%20parent%3D%220%22%2F%3E%3CmxCell%20id%3D%222%22%20value%3D%22%26lt%3Bspan%20style%3D%26quot%3Bcolor%3A%20rgb(0%2C%200%2C%200)%3B%26quot%3B%26gt%3BData%20tempat%20tidur%26lt%3B%2Fspan%26gt%3B%22%20style%3D%22edgeLabel%3Bhtml%3D1%3Balign%3Dcenter%3BverticalAlign%3Dmiddle%3Bresizable%3D0%3Bpoints%3D%5B%5D%3B%22%20vertex%3D%221%22%20connectable%3D%220%22%20parent%3D%221%22%3E%3CmxGeometry%20x%3D%22529.7245006909558%22%20y%3D%22457.3376921912395%22%20as%3D%22geometry%22%2F%3E%3C%2FmxCell%3E%3C%2Froot%3E%3C%2FmxGraphModel%3E&lt;/span&gt;" style="edgeLabel;html=1;align=center;verticalAlign=middle;resizable=0;points=[];" parent="63" vertex="1" connectable="0">
                    <mxGeometry x="-0.0932" y="-1" relative="1" as="geometry">
                        <mxPoint as="offset"/>
                    </mxGeometry>
                </mxCell>
                <mxCell id="97" value="&lt;span style=&quot;font-family: monospace; font-size: 0px; text-align: start; background-color: rgb(251, 251, 251);&quot;&gt;%3CmxGraphModel%3E%3Croot%3E%3CmxCell%20id%3D%220%22%2F%3E%3CmxCell%20id%3D%221%22%20parent%3D%220%22%2F%3E%3CmxCell%20id%3D%222%22%20value%3D%22%26lt%3Bspan%20style%3D%26quot%3Bcolor%3A%20rgb(0%2C%200%2C%200)%3B%26quot%3B%26gt%3BData%20tempat%20tidur%26lt%3B%2Fspan%26gt%3B%22%20style%3D%22edgeLabel%3Bhtml%3D1%3Balign%3Dcenter%3BverticalAlign%3Dmiddle%3Bresizable%3D0%3Bpoints%3D%5B%5D%3B%22%20vertex%3D%221%22%20connectable%3D%220%22%20parent%3D%221%22%3E%3CmxGeometry%20x%3D%22529.7245006909558%22%20y%3D%22457.3376921912395%22%20as%3D%22geometry%22%2F%3E%3C%2FmxCell%3E%3C%2Froot%3E%3C%2FmxGraphModel%3E&lt;/span&gt;" style="edgeLabel;html=1;align=center;verticalAlign=middle;resizable=0;points=[];" parent="63" vertex="1" connectable="0">
                    <mxGeometry x="-0.0641" relative="1" as="geometry">
                        <mxPoint as="offset"/>
                    </mxGeometry>
                </mxCell>
                <mxCell id="98" value="&lt;span style=&quot;color: rgb(0, 0, 0);&quot;&gt;Data tempat tidur&lt;/span&gt;" style="edgeLabel;html=1;align=center;verticalAlign=middle;resizable=0;points=[];" parent="63" vertex="1" connectable="0">
                    <mxGeometry x="-0.0611" y="1" relative="1" as="geometry">
                        <mxPoint x="-3" as="offset"/>
                    </mxGeometry>
                </mxCell>
                <mxCell id="68" value="" style="endArrow=classic;html=1;rounded=0;curved=0;jumpStyle=arc;entryX=0;entryY=0;entryDx=0;entryDy=0;exitX=0.894;exitY=0.952;exitDx=0;exitDy=0;exitPerimeter=0;" parent="1" edge="1">
                    <mxGeometry width="50" height="50" relative="1" as="geometry">
                        <mxPoint x="119.39999999999998" y="249.60000000000002" as="sourcePoint"/>
                        <mxPoint x="360.50252531694207" y="462.50252531694207" as="targetPoint"/>
                        <Array as="points">
                            <mxPoint x="120" y="462"/>
                        </Array>
                    </mxGeometry>
                </mxCell>
                <mxCell id="89" value="&lt;span style=&quot;color: rgb(0, 0, 0);&quot;&gt;Data user&lt;/span&gt;" style="edgeLabel;html=1;align=center;verticalAlign=middle;resizable=0;points=[];" parent="68" vertex="1" connectable="0">
                    <mxGeometry x="0.0388" relative="1" as="geometry">
                        <mxPoint x="58" as="offset"/>
                    </mxGeometry>
                </mxCell>
                <mxCell id="71" value="" style="endArrow=classic;html=1;rounded=0;curved=0;jumpStyle=arc;entryX=1;entryY=0.25;entryDx=0;entryDy=0;exitX=0.131;exitY=0.836;exitDx=0;exitDy=0;exitPerimeter=0;" parent="1" source="4" target="129" edge="1">
                    <mxGeometry width="50" height="50" relative="1" as="geometry">
                        <mxPoint x="260" y="900" as="sourcePoint"/>
                        <mxPoint x="310" y="850" as="targetPoint"/>
                    </mxGeometry>
                </mxCell>
                <mxCell id="162" value="Data ketersediaan" style="edgeLabel;html=1;align=center;verticalAlign=middle;resizable=0;points=[];" parent="71" vertex="1" connectable="0">
                    <mxGeometry x="0.4454" relative="1" as="geometry">
                        <mxPoint x="32" as="offset"/>
                    </mxGeometry>
                </mxCell>
                <mxCell id="72" value="" style="endArrow=classic;html=1;rounded=0;curved=0;jumpStyle=arc;exitX=1;exitY=0.75;exitDx=0;exitDy=0;" parent="1" source="128" edge="1">
                    <mxGeometry width="50" height="50" relative="1" as="geometry">
                        <mxPoint x="223" y="660.98" as="sourcePoint"/>
                        <mxPoint x="360" y="663" as="targetPoint"/>
                    </mxGeometry>
                </mxCell>
                <mxCell id="132" value="Data pengaturan" style="edgeLabel;html=1;align=center;verticalAlign=middle;resizable=0;points=[];" parent="72" vertex="1" connectable="0">
                    <mxGeometry x="0.037" y="1" relative="1" as="geometry">
                        <mxPoint y="2" as="offset"/>
                    </mxGeometry>
                </mxCell>
                <mxCell id="74" value="" style="endArrow=classic;html=1;rounded=0;curved=0;jumpStyle=arc;exitX=0.314;exitY=1.023;exitDx=0;exitDy=0;entryX=0.031;entryY=0.673;entryDx=0;entryDy=0;entryPerimeter=0;exitPerimeter=0;" parent="1" source="35" edge="1">
                    <mxGeometry width="50" height="50" relative="1" as="geometry">
                        <mxPoint x="55" y="245" as="sourcePoint"/>
                        <mxPoint x="344.3399999999999" y="535.22" as="targetPoint"/>
                        <Array as="points">
                            <mxPoint x="60" y="535"/>
                        </Array>
                    </mxGeometry>
                </mxCell>
                <mxCell id="120" value="Data kebijakan" style="edgeLabel;html=1;align=center;verticalAlign=middle;resizable=0;points=[];" parent="74" vertex="1" connectable="0">
                    <mxGeometry x="0.4206" y="-1" relative="1" as="geometry">
                        <mxPoint x="34" y="-1" as="offset"/>
                    </mxGeometry>
                </mxCell>
                <mxCell id="76" value="" style="endArrow=classic;html=1;rounded=0;curved=0;jumpStyle=arc;exitX=1;exitY=0.75;exitDx=0;exitDy=0;" parent="1" source="130" edge="1">
                    <mxGeometry width="50" height="50" relative="1" as="geometry">
                        <mxPoint x="220" y="715.5" as="sourcePoint"/>
                        <mxPoint x="340" y="718" as="targetPoint"/>
                    </mxGeometry>
                </mxCell>
                <mxCell id="134" value="Data kamar" style="edgeLabel;html=1;align=center;verticalAlign=middle;resizable=0;points=[];" parent="76" vertex="1" connectable="0">
                    <mxGeometry x="-0.3011" y="1" relative="1" as="geometry">
                        <mxPoint x="23" y="1" as="offset"/>
                    </mxGeometry>
                </mxCell>
                <mxCell id="77" value="" style="endArrow=classic;html=1;rounded=0;curved=0;jumpStyle=arc;entryX=1;entryY=0.25;entryDx=0;entryDy=0;exitX=0.256;exitY=0.053;exitDx=0;exitDy=0;exitPerimeter=0;" parent="1" source="4" target="128" edge="1">
                    <mxGeometry width="50" height="50" relative="1" as="geometry">
                        <mxPoint x="369.96000000000004" y="650.74" as="sourcePoint"/>
                        <mxPoint x="221.69999999999993" y="650.3600000000001" as="targetPoint"/>
                    </mxGeometry>
                </mxCell>
                <mxCell id="131" value="Data pengaturan" style="edgeLabel;html=1;align=center;verticalAlign=middle;resizable=0;points=[];" parent="77" vertex="1" connectable="0">
                    <mxGeometry x="0.198" y="-2" relative="1" as="geometry">
                        <mxPoint x="13" as="offset"/>
                    </mxGeometry>
                </mxCell>
                <mxCell id="78" value="" style="endArrow=classic;html=1;rounded=0;curved=0;jumpStyle=arc;exitX=1;exitY=0.75;exitDx=0;exitDy=0;entryX=0.037;entryY=0.697;entryDx=0;entryDy=0;entryPerimeter=0;" parent="1" source="216" target="8" edge="1">
                    <mxGeometry width="50" height="50" relative="1" as="geometry">
                        <mxPoint x="210" y="1180" as="sourcePoint"/>
                        <mxPoint x="260" y="1130" as="targetPoint"/>
                    </mxGeometry>
                </mxCell>
                <mxCell id="218" value="Status/ konfirmasi&lt;div&gt;pembayaran&lt;/div&gt;" style="edgeLabel;html=1;align=center;verticalAlign=middle;resizable=0;points=[];" parent="78" vertex="1" connectable="0">
                    <mxGeometry x="-0.2546" y="2" relative="1" as="geometry">
                        <mxPoint x="15" y="4" as="offset"/>
                    </mxGeometry>
                </mxCell>
                <mxCell id="80" value="" style="endArrow=classic;html=1;rounded=0;curved=0;jumpStyle=arc;exitX=0.003;exitY=0.399;exitDx=0;exitDy=0;exitPerimeter=0;entryX=0.59;entryY=1.007;entryDx=0;entryDy=0;entryPerimeter=0;" parent="1" target="35" edge="1">
                    <mxGeometry width="50" height="50" relative="1" as="geometry">
                        <mxPoint x="340.4200000000001" y="497.86" as="sourcePoint"/>
                        <mxPoint x="90" y="498" as="targetPoint"/>
                        <Array as="points">
                            <mxPoint x="90" y="500"/>
                        </Array>
                    </mxGeometry>
                </mxCell>
                <mxCell id="109" value="Info data fasilitas" style="edgeLabel;html=1;align=center;verticalAlign=middle;resizable=0;points=[];" parent="80" vertex="1" connectable="0">
                    <mxGeometry x="0.1642" y="1" relative="1" as="geometry">
                        <mxPoint x="129" y="40" as="offset"/>
                    </mxGeometry>
                </mxCell>
                <mxCell id="81" value="" style="endArrow=classic;html=1;rounded=0;curved=0;jumpStyle=arc;exitX=0.005;exitY=0.442;exitDx=0;exitDy=0;exitPerimeter=0;entryX=1;entryY=0.25;entryDx=0;entryDy=0;" parent="1" source="4" target="130" edge="1">
                    <mxGeometry width="50" height="50" relative="1" as="geometry">
                        <mxPoint x="340.56000000000006" y="703.72" as="sourcePoint"/>
                        <mxPoint x="220" y="703.5" as="targetPoint"/>
                    </mxGeometry>
                </mxCell>
                <mxCell id="133" value="Data kamar" style="edgeLabel;html=1;align=center;verticalAlign=middle;resizable=0;points=[];" parent="81" vertex="1" connectable="0">
                    <mxGeometry x="0.3715" y="-1" relative="1" as="geometry">
                        <mxPoint x="27" as="offset"/>
                    </mxGeometry>
                </mxCell>
                <mxCell id="82" value="" style="endArrow=classic;html=1;rounded=0;curved=0;jumpStyle=arc;entryX=0.408;entryY=1.004;entryDx=0;entryDy=0;entryPerimeter=0;exitX=0.008;exitY=0.586;exitDx=0;exitDy=0;exitPerimeter=0;" parent="1" target="35" edge="1">
                    <mxGeometry width="50" height="50" relative="1" as="geometry">
                        <mxPoint x="341.1200000000001" y="525.04" as="sourcePoint"/>
                        <mxPoint x="70.90000000000009" y="251.35000000000002" as="targetPoint"/>
                        <Array as="points">
                            <mxPoint x="70" y="526"/>
                        </Array>
                    </mxGeometry>
                </mxCell>
                <mxCell id="119" value="Info data kebijakan" style="edgeLabel;html=1;align=center;verticalAlign=middle;resizable=0;points=[];" parent="82" vertex="1" connectable="0">
                    <mxGeometry x="0.0288" y="1" relative="1" as="geometry">
                        <mxPoint x="154" y="7" as="offset"/>
                    </mxGeometry>
                </mxCell>
                <mxCell id="83" value="" style="endArrow=classic;html=1;rounded=0;curved=0;jumpStyle=arc;entryX=0.255;entryY=0.941;entryDx=0;entryDy=0;entryPerimeter=0;exitX=1;exitY=0.75;exitDx=0;exitDy=0;" parent="1" source="129" target="4" edge="1">
                    <mxGeometry width="50" height="50" relative="1" as="geometry">
                        <mxPoint x="280" y="774" as="sourcePoint"/>
                        <mxPoint x="290" y="830" as="targetPoint"/>
                    </mxGeometry>
                </mxCell>
                <mxCell id="163" value="Data ketersediaan" style="edgeLabel;html=1;align=center;verticalAlign=middle;resizable=0;points=[];" parent="83" vertex="1" connectable="0">
                    <mxGeometry x="-0.4387" relative="1" as="geometry">
                        <mxPoint x="27" as="offset"/>
                    </mxGeometry>
                </mxCell>
                <mxCell id="90" value="Hotels" style="html=1;dashed=0;whiteSpace=wrap;shape=partialRectangle;right=0;left=0;" parent="1" vertex="1">
                    <mxGeometry x="600" y="400" width="100" height="30" as="geometry"/>
                </mxCell>
                <mxCell id="93" value="Beds" style="html=1;dashed=0;whiteSpace=wrap;shape=partialRectangle;right=0;left=0;" parent="1" vertex="1">
                    <mxGeometry x="600" y="450" width="100" height="30" as="geometry"/>
                </mxCell>
                <mxCell id="95" value="&lt;span style=&quot;font-family: monospace; font-size: 0px; text-align: start; background-color: rgb(251, 251, 251);&quot;&gt;%3CmxGraphModel%3E%3Croot%3E%3CmxCell%20id%3D%220%22%2F%3E%3CmxCell%20id%3D%221%22%20parent%3D%220%22%2F%3E%3CmxCell%20id%3D%222%22%20value%3D%22%26lt%3Bspan%20style%3D%26quot%3Bcolor%3A%20rgb(0%2C%200%2C%200)%3B%26quot%3B%26gt%3BData%20tempat%20tidur%26lt%3B%2Fspan%26gt%3B%22%20style%3D%22edgeLabel%3Bhtml%3D1%3Balign%3Dcenter%3BverticalAlign%3Dmiddle%3Bresizable%3D0%3Bpoints%3D%5B%5D%3B%22%20vertex%3D%221%22%20connectable%3D%220%22%20parent%3D%221%22%3E%3CmxGeometry%20x%3D%22529.7245006909558%22%20y%3D%22457.3376921912395%22%20as%3D%22geometry%22%2F%3E%3C%2FmxCell%3E%3C%2Froot%3E%3C%2FmxGraphModel%3E&lt;/span&gt;" style="edgeLabel;html=1;align=center;verticalAlign=middle;resizable=0;points=[];" parent="1" vertex="1" connectable="0">
                    <mxGeometry x="530.0045006909558" y="499.9976921912395" as="geometry"/>
                </mxCell>
                <mxCell id="102" value="Amenities" style="html=1;dashed=0;whiteSpace=wrap;shape=partialRectangle;right=0;left=0;" parent="1" vertex="1">
                    <mxGeometry x="600" y="500" width="100" height="30" as="geometry"/>
                </mxCell>
                <mxCell id="103" value="" style="endArrow=classic;html=1;rounded=0;curved=0;jumpStyle=arc;" parent="1" edge="1">
                    <mxGeometry width="50" height="50" relative="1" as="geometry">
                        <mxPoint x="480" y="509" as="sourcePoint"/>
                        <mxPoint x="600" y="510" as="targetPoint"/>
                    </mxGeometry>
                </mxCell>
                <mxCell id="104" value="&lt;span style=&quot;color: rgb(0, 0, 0);&quot;&gt;Data fasilitas&lt;/span&gt;" style="edgeLabel;html=1;align=center;verticalAlign=middle;resizable=0;points=[];" parent="103" vertex="1" connectable="0">
                    <mxGeometry x="-0.159" relative="1" as="geometry">
                        <mxPoint x="11" as="offset"/>
                    </mxGeometry>
                </mxCell>
                <mxCell id="105" value="" style="endArrow=classic;html=1;rounded=0;curved=0;jumpStyle=arc;" parent="1" edge="1">
                    <mxGeometry width="50" height="50" relative="1" as="geometry">
                        <mxPoint x="600" y="520" as="sourcePoint"/>
                        <mxPoint x="480" y="520" as="targetPoint"/>
                    </mxGeometry>
                </mxCell>
                <mxCell id="106" value="&lt;span style=&quot;font-family: monospace; font-size: 0px; text-align: start; background-color: rgb(251, 251, 251);&quot;&gt;%3CmxGraphModel%3E%3Croot%3E%3CmxCell%20id%3D%220%22%2F%3E%3CmxCell%20id%3D%221%22%20parent%3D%220%22%2F%3E%3CmxCell%20id%3D%222%22%20value%3D%22%26lt%3Bspan%20style%3D%26quot%3Bcolor%3A%20rgb(0%2C%200%2C%200)%3B%26quot%3B%26gt%3BData%20tempat%20tidur%26lt%3B%2Fspan%26gt%3B%22%20style%3D%22edgeLabel%3Bhtml%3D1%3Balign%3Dcenter%3BverticalAlign%3Dmiddle%3Bresizable%3D0%3Bpoints%3D%5B%5D%3B%22%20vertex%3D%221%22%20connectable%3D%220%22%20parent%3D%221%22%3E%3CmxGeometry%20x%3D%22529.7245006909558%22%20y%3D%22457.3376921912395%22%20as%3D%22geometry%22%2F%3E%3C%2FmxCell%3E%3C%2Froot%3E%3C%2FmxGraphModel%3E&lt;/span&gt;" style="edgeLabel;html=1;align=center;verticalAlign=middle;resizable=0;points=[];" parent="105" vertex="1" connectable="0">
                    <mxGeometry x="-0.0932" y="-1" relative="1" as="geometry">
                        <mxPoint as="offset"/>
                    </mxGeometry>
                </mxCell>
                <mxCell id="107" value="&lt;span style=&quot;font-family: monospace; font-size: 0px; text-align: start; background-color: rgb(251, 251, 251);&quot;&gt;%3CmxGraphModel%3E%3Croot%3E%3CmxCell%20id%3D%220%22%2F%3E%3CmxCell%20id%3D%221%22%20parent%3D%220%22%2F%3E%3CmxCell%20id%3D%222%22%20value%3D%22%26lt%3Bspan%20style%3D%26quot%3Bcolor%3A%20rgb(0%2C%200%2C%200)%3B%26quot%3B%26gt%3BData%20tempat%20tidur%26lt%3B%2Fspan%26gt%3B%22%20style%3D%22edgeLabel%3Bhtml%3D1%3Balign%3Dcenter%3BverticalAlign%3Dmiddle%3Bresizable%3D0%3Bpoints%3D%5B%5D%3B%22%20vertex%3D%221%22%20connectable%3D%220%22%20parent%3D%221%22%3E%3CmxGeometry%20x%3D%22529.7245006909558%22%20y%3D%22457.3376921912395%22%20as%3D%22geometry%22%2F%3E%3C%2FmxCell%3E%3C%2Froot%3E%3C%2FmxGraphModel%3E&lt;/span&gt;" style="edgeLabel;html=1;align=center;verticalAlign=middle;resizable=0;points=[];" parent="105" vertex="1" connectable="0">
                    <mxGeometry x="-0.0641" relative="1" as="geometry">
                        <mxPoint as="offset"/>
                    </mxGeometry>
                </mxCell>
                <mxCell id="108" value="&lt;span style=&quot;color: rgb(0, 0, 0);&quot;&gt;Data fasilitas&lt;/span&gt;" style="edgeLabel;html=1;align=center;verticalAlign=middle;resizable=0;points=[];" parent="105" vertex="1" connectable="0">
                    <mxGeometry x="-0.0611" y="1" relative="1" as="geometry">
                        <mxPoint x="-3" as="offset"/>
                    </mxGeometry>
                </mxCell>
                <mxCell id="111" value="Policies" style="html=1;dashed=0;whiteSpace=wrap;shape=partialRectangle;right=0;left=0;" parent="1" vertex="1">
                    <mxGeometry x="600" y="550" width="100" height="30" as="geometry"/>
                </mxCell>
                <mxCell id="112" value="&lt;span style=&quot;font-family: monospace; font-size: 0px; text-align: start; background-color: rgb(251, 251, 251);&quot;&gt;%3CmxGraphModel%3E%3Croot%3E%3CmxCell%20id%3D%220%22%2F%3E%3CmxCell%20id%3D%221%22%20parent%3D%220%22%2F%3E%3CmxCell%20id%3D%222%22%20value%3D%22%26lt%3Bspan%20style%3D%26quot%3Bcolor%3A%20rgb(0%2C%200%2C%200)%3B%26quot%3B%26gt%3BData%20tempat%20tidur%26lt%3B%2Fspan%26gt%3B%22%20style%3D%22edgeLabel%3Bhtml%3D1%3Balign%3Dcenter%3BverticalAlign%3Dmiddle%3Bresizable%3D0%3Bpoints%3D%5B%5D%3B%22%20vertex%3D%221%22%20connectable%3D%220%22%20parent%3D%221%22%3E%3CmxGeometry%20x%3D%22529.7245006909558%22%20y%3D%22457.3376921912395%22%20as%3D%22geometry%22%2F%3E%3C%2FmxCell%3E%3C%2Froot%3E%3C%2FmxGraphModel%3E&lt;/span&gt;" style="edgeLabel;html=1;align=center;verticalAlign=middle;resizable=0;points=[];" parent="1" vertex="1" connectable="0">
                    <mxGeometry x="530.0045006909558" y="549.9976921912395" as="geometry"/>
                </mxCell>
                <mxCell id="113" value="" style="endArrow=classic;html=1;rounded=0;curved=0;jumpStyle=arc;exitX=1;exitY=1;exitDx=0;exitDy=0;" parent="1" source="3" edge="1">
                    <mxGeometry width="50" height="50" relative="1" as="geometry">
                        <mxPoint x="480" y="559" as="sourcePoint"/>
                        <mxPoint x="600" y="560" as="targetPoint"/>
                    </mxGeometry>
                </mxCell>
                <mxCell id="114" value="&lt;span style=&quot;color: rgb(0, 0, 0);&quot;&gt;Data kebijakan&lt;/span&gt;" style="edgeLabel;html=1;align=center;verticalAlign=middle;resizable=0;points=[];" parent="113" vertex="1" connectable="0">
                    <mxGeometry x="-0.159" relative="1" as="geometry">
                        <mxPoint x="9" as="offset"/>
                    </mxGeometry>
                </mxCell>
                <mxCell id="115" value="" style="endArrow=classic;html=1;rounded=0;curved=0;jumpStyle=arc;entryX=0.756;entryY=0.931;entryDx=0;entryDy=0;entryPerimeter=0;" parent="1" edge="1">
                    <mxGeometry width="50" height="50" relative="1" as="geometry">
                        <mxPoint x="600" y="571" as="sourcePoint"/>
                        <mxPoint x="445.8399999999999" y="571.34" as="targetPoint"/>
                    </mxGeometry>
                </mxCell>
                <mxCell id="116" value="&lt;span style=&quot;font-family: monospace; font-size: 0px; text-align: start; background-color: rgb(251, 251, 251);&quot;&gt;%3CmxGraphModel%3E%3Croot%3E%3CmxCell%20id%3D%220%22%2F%3E%3CmxCell%20id%3D%221%22%20parent%3D%220%22%2F%3E%3CmxCell%20id%3D%222%22%20value%3D%22%26lt%3Bspan%20style%3D%26quot%3Bcolor%3A%20rgb(0%2C%200%2C%200)%3B%26quot%3B%26gt%3BData%20tempat%20tidur%26lt%3B%2Fspan%26gt%3B%22%20style%3D%22edgeLabel%3Bhtml%3D1%3Balign%3Dcenter%3BverticalAlign%3Dmiddle%3Bresizable%3D0%3Bpoints%3D%5B%5D%3B%22%20vertex%3D%221%22%20connectable%3D%220%22%20parent%3D%221%22%3E%3CmxGeometry%20x%3D%22529.7245006909558%22%20y%3D%22457.3376921912395%22%20as%3D%22geometry%22%2F%3E%3C%2FmxCell%3E%3C%2Froot%3E%3C%2FmxGraphModel%3E&lt;/span&gt;" style="edgeLabel;html=1;align=center;verticalAlign=middle;resizable=0;points=[];" parent="115" vertex="1" connectable="0">
                    <mxGeometry x="-0.0932" y="-1" relative="1" as="geometry">
                        <mxPoint as="offset"/>
                    </mxGeometry>
                </mxCell>
                <mxCell id="117" value="&lt;span style=&quot;font-family: monospace; font-size: 0px; text-align: start; background-color: rgb(251, 251, 251);&quot;&gt;%3CmxGraphModel%3E%3Croot%3E%3CmxCell%20id%3D%220%22%2F%3E%3CmxCell%20id%3D%221%22%20parent%3D%220%22%2F%3E%3CmxCell%20id%3D%222%22%20value%3D%22%26lt%3Bspan%20style%3D%26quot%3Bcolor%3A%20rgb(0%2C%200%2C%200)%3B%26quot%3B%26gt%3BData%20tempat%20tidur%26lt%3B%2Fspan%26gt%3B%22%20style%3D%22edgeLabel%3Bhtml%3D1%3Balign%3Dcenter%3BverticalAlign%3Dmiddle%3Bresizable%3D0%3Bpoints%3D%5B%5D%3B%22%20vertex%3D%221%22%20connectable%3D%220%22%20parent%3D%221%22%3E%3CmxGeometry%20x%3D%22529.7245006909558%22%20y%3D%22457.3376921912395%22%20as%3D%22geometry%22%2F%3E%3C%2FmxCell%3E%3C%2Froot%3E%3C%2FmxGraphModel%3E&lt;/span&gt;" style="edgeLabel;html=1;align=center;verticalAlign=middle;resizable=0;points=[];" parent="115" vertex="1" connectable="0">
                    <mxGeometry x="-0.0641" relative="1" as="geometry">
                        <mxPoint as="offset"/>
                    </mxGeometry>
                </mxCell>
                <mxCell id="118" value="&lt;span style=&quot;color: rgb(0, 0, 0);&quot;&gt;Data kebijakan&lt;/span&gt;" style="edgeLabel;html=1;align=center;verticalAlign=middle;resizable=0;points=[];" parent="115" vertex="1" connectable="0">
                    <mxGeometry x="-0.0611" y="1" relative="1" as="geometry">
                        <mxPoint x="1" as="offset"/>
                    </mxGeometry>
                </mxCell>
                <mxCell id="124" value="Roles" style="html=1;dashed=0;whiteSpace=wrap;shape=partialRectangle;right=0;left=0;" parent="1" vertex="1">
                    <mxGeometry x="210" y="220" width="100" height="30" as="geometry"/>
                </mxCell>
                <mxCell id="128" value="Settings" style="html=1;dashed=0;whiteSpace=wrap;shape=partialRectangle;right=0;left=0;" parent="1" vertex="1">
                    <mxGeometry x="120" y="640" width="100" height="30" as="geometry"/>
                </mxCell>
                <mxCell id="129" value="Allotments" style="html=1;dashed=0;whiteSpace=wrap;shape=partialRectangle;right=0;left=0;" parent="1" vertex="1">
                    <mxGeometry x="120" y="750" width="100" height="30" as="geometry"/>
                </mxCell>
                <mxCell id="130" value="Rooms" style="html=1;dashed=0;whiteSpace=wrap;shape=partialRectangle;right=0;left=0;" parent="1" vertex="1">
                    <mxGeometry x="120" y="695" width="100" height="30" as="geometry"/>
                </mxCell>
                <mxCell id="136" value="" style="endArrow=classic;html=1;rounded=0;curved=0;jumpStyle=arc;entryX=0.994;entryY=0.405;entryDx=0;entryDy=0;entryPerimeter=0;exitX=0.837;exitY=-0.017;exitDx=0;exitDy=0;exitPerimeter=0;" parent="1" source="38" edge="1">
                    <mxGeometry width="50" height="50" relative="1" as="geometry">
                        <mxPoint x="836" y="117" as="sourcePoint"/>
                        <mxPoint x="479.15999999999997" y="693.7" as="targetPoint"/>
                        <Array as="points">
                            <mxPoint x="694" y="190"/>
                            <mxPoint x="816" y="190"/>
                            <mxPoint x="816" y="694"/>
                        </Array>
                    </mxGeometry>
                </mxCell>
                <mxCell id="167" value="Data kamar" style="edgeLabel;html=1;align=center;verticalAlign=middle;resizable=0;points=[];" parent="136" vertex="1" connectable="0">
                    <mxGeometry x="0.767" relative="1" as="geometry">
                        <mxPoint x="-8" y="2" as="offset"/>
                    </mxGeometry>
                </mxCell>
                <mxCell id="137" value="" style="endArrow=classic;html=1;rounded=0;curved=0;jumpStyle=arc;exitX=0.6;exitY=-0.037;exitDx=0;exitDy=0;exitPerimeter=0;" parent="1" source="38" edge="1">
                    <mxGeometry width="50" height="50" relative="1" as="geometry">
                        <mxPoint x="889" y="114" as="sourcePoint"/>
                        <mxPoint x="480" y="716" as="targetPoint"/>
                        <Array as="points">
                            <mxPoint x="670" y="170"/>
                            <mxPoint x="840" y="170"/>
                            <mxPoint x="839" y="717"/>
                        </Array>
                    </mxGeometry>
                </mxCell>
                <mxCell id="169" value="Data ketersediaan" style="edgeLabel;html=1;align=center;verticalAlign=middle;resizable=0;points=[];" parent="137" vertex="1" connectable="0">
                    <mxGeometry x="0.8392" y="-1" relative="1" as="geometry">
                        <mxPoint x="32" y="4" as="offset"/>
                    </mxGeometry>
                </mxCell>
                <mxCell id="139" value="" style="endArrow=classic;html=1;rounded=0;curved=0;jumpStyle=arc;entryX=0;entryY=0.25;entryDx=0;entryDy=0;exitX=0.792;exitY=0.095;exitDx=0;exitDy=0;exitPerimeter=0;" parent="1" source="7" target="181" edge="1">
                    <mxGeometry width="50" height="50" relative="1" as="geometry">
                        <mxPoint x="460" y="830" as="sourcePoint"/>
                        <mxPoint x="590" y="820" as="targetPoint"/>
                    </mxGeometry>
                </mxCell>
                <mxCell id="193" value="Data reservasi" style="edgeLabel;html=1;align=center;verticalAlign=middle;resizable=0;points=[];" parent="139" vertex="1" connectable="0">
                    <mxGeometry x="-0.1183" y="1" relative="1" as="geometry">
                        <mxPoint x="19" as="offset"/>
                    </mxGeometry>
                </mxCell>
                <mxCell id="141" value="" style="endArrow=classic;html=1;rounded=0;curved=0;jumpStyle=arc;" parent="1" edge="1">
                    <mxGeometry width="50" height="50" relative="1" as="geometry">
                        <mxPoint x="770" y="230" as="sourcePoint"/>
                        <mxPoint x="410" y="580" as="targetPoint"/>
                        <Array as="points">
                            <mxPoint x="710" y="230"/>
                            <mxPoint x="770" y="230"/>
                            <mxPoint x="770" y="636"/>
                            <mxPoint x="410" y="636"/>
                        </Array>
                    </mxGeometry>
                </mxCell>
                <mxCell id="173" value="Data hotel (miliknya)" style="edgeLabel;html=1;align=center;verticalAlign=middle;resizable=0;points=[];" parent="141" vertex="1" connectable="0">
                    <mxGeometry x="0.2528" y="-2" relative="1" as="geometry">
                        <mxPoint x="-157" y="3" as="offset"/>
                    </mxGeometry>
                </mxCell>
                <mxCell id="143" value="" style="endArrow=classic;html=1;rounded=0;curved=0;jumpStyle=arc;entryX=0;entryY=0.75;entryDx=0;entryDy=0;exitX=0.962;exitY=0.302;exitDx=0;exitDy=0;exitPerimeter=0;" parent="1" source="5" target="178" edge="1">
                    <mxGeometry width="50" height="50" relative="1" as="geometry">
                        <mxPoint x="939" y="54" as="sourcePoint"/>
                        <mxPoint x="1170" y="60" as="targetPoint"/>
                    </mxGeometry>
                </mxCell>
                <mxCell id="180" value="Data kode promo" style="edgeLabel;html=1;align=center;verticalAlign=middle;resizable=0;points=[];" parent="143" vertex="1" connectable="0">
                    <mxGeometry x="0.1141" y="-1" relative="1" as="geometry">
                        <mxPoint x="-8" y="-2" as="offset"/>
                    </mxGeometry>
                </mxCell>
                <mxCell id="145" value="" style="endArrow=classic;html=1;rounded=0;curved=0;jumpStyle=arc;entryX=1;entryY=0.25;entryDx=0;entryDy=0;exitX=0;exitY=0.515;exitDx=0;exitDy=0;exitPerimeter=0;" parent="1" source="8" target="216" edge="1">
                    <mxGeometry width="50" height="50" relative="1" as="geometry">
                        <mxPoint x="185" y="1130" as="sourcePoint"/>
                        <mxPoint x="235" y="1080" as="targetPoint"/>
                    </mxGeometry>
                </mxCell>
                <mxCell id="217" value="Permintaan transaksi&lt;div&gt;(detail pembayaran)&lt;/div&gt;" style="edgeLabel;html=1;align=center;verticalAlign=middle;resizable=0;points=[];" parent="145" vertex="1" connectable="0">
                    <mxGeometry x="0.2444" y="-1" relative="1" as="geometry">
                        <mxPoint x="16" y="-1" as="offset"/>
                    </mxGeometry>
                </mxCell>
                <mxCell id="146" value="" style="endArrow=classic;html=1;rounded=0;curved=0;jumpStyle=arc;entryX=0;entryY=0.25;entryDx=0;entryDy=0;exitX=0.285;exitY=0.955;exitDx=0;exitDy=0;exitPerimeter=0;" parent="1" source="5" target="38" edge="1">
                    <mxGeometry width="50" height="50" relative="1" as="geometry">
                        <mxPoint x="500" y="200" as="sourcePoint"/>
                        <mxPoint x="550" y="150" as="targetPoint"/>
                        <Array as="points">
                            <mxPoint x="530" y="223"/>
                        </Array>
                    </mxGeometry>
                </mxCell>
                <mxCell id="177" value="Info data&lt;div&gt;kode promo&lt;/div&gt;" style="edgeLabel;html=1;align=center;verticalAlign=middle;resizable=0;points=[];" parent="146" vertex="1" connectable="0">
                    <mxGeometry x="0.1468" y="1" relative="1" as="geometry">
                        <mxPoint x="-36" y="-15" as="offset"/>
                    </mxGeometry>
                </mxCell>
                <mxCell id="147" value="" style="endArrow=classic;html=1;rounded=0;curved=0;jumpStyle=arc;exitX=0;exitY=0.75;exitDx=0;exitDy=0;entryX=0.927;entryY=0.234;entryDx=0;entryDy=0;entryPerimeter=0;" parent="1" source="213" target="8" edge="1">
                    <mxGeometry width="50" height="50" relative="1" as="geometry">
                        <mxPoint x="550" y="1120" as="sourcePoint"/>
                        <mxPoint x="600" y="1070" as="targetPoint"/>
                    </mxGeometry>
                </mxCell>
                <mxCell id="215" value="Data transaksi" style="edgeLabel;html=1;align=center;verticalAlign=middle;resizable=0;points=[];" parent="147" vertex="1" connectable="0">
                    <mxGeometry x="0.0353" y="-1" relative="1" as="geometry">
                        <mxPoint as="offset"/>
                    </mxGeometry>
                </mxCell>
                <mxCell id="148" value="" style="endArrow=classic;html=1;rounded=0;curved=0;jumpStyle=arc;exitX=0.99;exitY=0.294;exitDx=0;exitDy=0;entryX=0.003;entryY=0.42;entryDx=0;entryDy=0;entryPerimeter=0;exitPerimeter=0;" parent="1" source="203" target="7" edge="1">
                    <mxGeometry width="50" height="50" relative="1" as="geometry">
                        <mxPoint x="220" y="905" as="sourcePoint"/>
                        <mxPoint x="270" y="855" as="targetPoint"/>
                    </mxGeometry>
                </mxCell>
                <mxCell id="208" value="Data diri" style="edgeLabel;html=1;align=center;verticalAlign=middle;resizable=0;points=[];" parent="148" vertex="1" connectable="0">
                    <mxGeometry x="-0.2412" y="1" relative="1" as="geometry">
                        <mxPoint x="15" as="offset"/>
                    </mxGeometry>
                </mxCell>
                <mxCell id="149" value="" style="endArrow=classic;html=1;rounded=0;curved=0;jumpStyle=arc;entryX=0;entryY=0.25;entryDx=0;entryDy=0;exitX=0.83;exitY=0.125;exitDx=0;exitDy=0;exitPerimeter=0;" parent="1" source="8" target="213" edge="1">
                    <mxGeometry width="50" height="50" relative="1" as="geometry">
                        <mxPoint x="505" y="1030" as="sourcePoint"/>
                        <mxPoint x="555" y="980" as="targetPoint"/>
                    </mxGeometry>
                </mxCell>
                <mxCell id="214" value="Data transaksi" style="edgeLabel;html=1;align=center;verticalAlign=middle;resizable=0;points=[];" parent="149" vertex="1" connectable="0">
                    <mxGeometry x="-0.1789" relative="1" as="geometry">
                        <mxPoint x="15" as="offset"/>
                    </mxGeometry>
                </mxCell>
                <mxCell id="150" value="" style="endArrow=classic;html=1;rounded=0;curved=0;jumpStyle=arc;exitX=1;exitY=0.5;exitDx=0;exitDy=0;entryX=0;entryY=0.5;entryDx=0;entryDy=0;" parent="1" source="203" target="7" edge="1">
                    <mxGeometry width="50" height="50" relative="1" as="geometry">
                        <mxPoint x="230" y="965" as="sourcePoint"/>
                        <mxPoint x="280" y="915" as="targetPoint"/>
                    </mxGeometry>
                </mxCell>
                <mxCell id="209" value="Data kamar dipilih" style="edgeLabel;html=1;align=center;verticalAlign=middle;resizable=0;points=[];" parent="150" vertex="1" connectable="0">
                    <mxGeometry x="-0.4021" y="1" relative="1" as="geometry">
                        <mxPoint x="31" as="offset"/>
                    </mxGeometry>
                </mxCell>
                <mxCell id="151" value="" style="endArrow=classic;html=1;rounded=0;curved=0;jumpStyle=arc;exitX=1;exitY=0;exitDx=0;exitDy=0;entryX=0.038;entryY=0.314;entryDx=0;entryDy=0;entryPerimeter=0;" parent="1" source="203" target="7" edge="1">
                    <mxGeometry width="50" height="50" relative="1" as="geometry">
                        <mxPoint x="230" y="890" as="sourcePoint"/>
                        <mxPoint x="280" y="840" as="targetPoint"/>
                    </mxGeometry>
                </mxCell>
                <mxCell id="207" value="Data reservasi" style="edgeLabel;html=1;align=center;verticalAlign=middle;resizable=0;points=[];" parent="151" vertex="1" connectable="0">
                    <mxGeometry x="-0.5081" y="1" relative="1" as="geometry">
                        <mxPoint x="37" y="1" as="offset"/>
                    </mxGeometry>
                </mxCell>
                <mxCell id="152" value="" style="endArrow=classic;html=1;rounded=0;curved=0;jumpStyle=arc;exitX=0.75;exitY=1;exitDx=0;exitDy=0;entryX=0;entryY=0;entryDx=0;entryDy=0;" parent="1" source="203" target="8" edge="1">
                    <mxGeometry width="50" height="50" relative="1" as="geometry">
                        <mxPoint x="185" y="1010" as="sourcePoint"/>
                        <mxPoint x="235" y="960" as="targetPoint"/>
                        <Array as="points">
                            <mxPoint x="145" y="1010"/>
                        </Array>
                    </mxGeometry>
                </mxCell>
                <mxCell id="211" value="Data transaksi" style="edgeLabel;html=1;align=center;verticalAlign=middle;resizable=0;points=[];" parent="152" vertex="1" connectable="0">
                    <mxGeometry x="0.1571" relative="1" as="geometry">
                        <mxPoint x="4" as="offset"/>
                    </mxGeometry>
                </mxCell>
                <mxCell id="153" value="" style="endArrow=classic;html=1;rounded=0;curved=0;jumpStyle=arc;entryX=0.031;entryY=0.308;entryDx=0;entryDy=0;entryPerimeter=0;exitX=0;exitY=0.5;exitDx=0;exitDy=0;" parent="1" source="203" target="5" edge="1">
                    <mxGeometry width="50" height="50" relative="1" as="geometry">
                        <mxPoint x="20" y="50" as="sourcePoint"/>
                        <mxPoint x="300" y="20" as="targetPoint"/>
                        <Array as="points">
                            <mxPoint x="10" y="880"/>
                            <mxPoint x="10" y="53"/>
                        </Array>
                    </mxGeometry>
                </mxCell>
                <mxCell id="205" value="Data kode promo" style="edgeLabel;html=1;align=center;verticalAlign=middle;resizable=0;points=[];" parent="153" vertex="1" connectable="0">
                    <mxGeometry x="0.5221" relative="1" as="geometry">
                        <mxPoint x="16" as="offset"/>
                    </mxGeometry>
                </mxCell>
                <mxCell id="154" value="" style="endArrow=classic;html=1;rounded=0;curved=0;jumpStyle=arc;exitX=1;exitY=0;exitDx=0;exitDy=0;entryX=0.994;entryY=0.211;entryDx=0;entryDy=0;entryPerimeter=0;" parent="1" source="4" target="38" edge="1">
                    <mxGeometry width="50" height="50" relative="1" as="geometry">
                        <mxPoint x="480.4974746830583" y="660.5025253169417" as="sourcePoint"/>
                        <mxPoint x="811" y="120" as="targetPoint"/>
                        <Array as="points">
                            <mxPoint x="781" y="660"/>
                            <mxPoint x="781" y="220"/>
                        </Array>
                    </mxGeometry>
                </mxCell>
                <mxCell id="164" value="Info data pengaturan" style="edgeLabel;html=1;align=center;verticalAlign=middle;resizable=0;points=[];" parent="154" vertex="1" connectable="0">
                    <mxGeometry x="-0.775" y="1" relative="1" as="geometry">
                        <mxPoint x="54" as="offset"/>
                    </mxGeometry>
                </mxCell>
                <mxCell id="155" value="" style="endArrow=classic;html=1;rounded=0;curved=0;jumpStyle=arc;exitX=0.006;exitY=0.428;exitDx=0;exitDy=0;exitPerimeter=0;entryX=0;entryY=0.25;entryDx=0;entryDy=0;" parent="1" source="5" target="203" edge="1">
                    <mxGeometry width="50" height="50" relative="1" as="geometry">
                        <mxPoint x="491.02" y="67.95999999999998" as="sourcePoint"/>
                        <mxPoint x="10" y="840" as="targetPoint"/>
                        <Array as="points">
                            <mxPoint x="20" y="70"/>
                            <mxPoint x="20" y="868"/>
                        </Array>
                    </mxGeometry>
                </mxCell>
                <mxCell id="206" value="Konfirmasi kode promo" style="edgeLabel;html=1;align=center;verticalAlign=middle;resizable=0;points=[];" parent="155" vertex="1" connectable="0">
                    <mxGeometry x="-0.4758" relative="1" as="geometry">
                        <mxPoint x="51" as="offset"/>
                    </mxGeometry>
                </mxCell>
                <mxCell id="157" value="" style="endArrow=classic;html=1;rounded=0;curved=0;jumpStyle=arc;exitX=0;exitY=0;exitDx=0;exitDy=0;entryX=0.359;entryY=0.984;entryDx=0;entryDy=0;entryPerimeter=0;" parent="1" source="38" target="5" edge="1">
                    <mxGeometry width="50" height="50" relative="1" as="geometry">
                        <mxPoint x="560" y="220" as="sourcePoint"/>
                        <mxPoint x="540" y="150" as="targetPoint"/>
                        <Array as="points">
                            <mxPoint x="540" y="210"/>
                        </Array>
                    </mxGeometry>
                </mxCell>
                <mxCell id="175" value="Data kode&lt;div&gt;promo&lt;/div&gt;" style="edgeLabel;html=1;align=center;verticalAlign=middle;resizable=0;points=[];" parent="157" vertex="1" connectable="0">
                    <mxGeometry x="-0.2124" y="-1" relative="1" as="geometry">
                        <mxPoint x="5" y="-29" as="offset"/>
                    </mxGeometry>
                </mxCell>
                <mxCell id="158" value="" style="endArrow=classic;html=1;rounded=0;curved=0;jumpStyle=arc;exitX=1;exitY=0.5;exitDx=0;exitDy=0;entryX=0.71;entryY=-0.037;entryDx=0;entryDy=0;entryPerimeter=0;" parent="1" target="38" edge="1">
                    <mxGeometry width="50" height="50" relative="1" as="geometry">
                        <mxPoint x="479.9999999999999" y="705" as="sourcePoint"/>
                        <mxPoint x="878" y="95" as="targetPoint"/>
                        <Array as="points">
                            <mxPoint x="828" y="705"/>
                            <mxPoint x="828" y="180"/>
                            <mxPoint x="681" y="180"/>
                        </Array>
                    </mxGeometry>
                </mxCell>
                <mxCell id="168" value="Info data ketersediaan" style="edgeLabel;html=1;align=center;verticalAlign=middle;resizable=0;points=[];" parent="158" vertex="1" connectable="0">
                    <mxGeometry x="-0.7984" relative="1" as="geometry">
                        <mxPoint x="26" y="2" as="offset"/>
                    </mxGeometry>
                </mxCell>
                <mxCell id="160" value="" style="endArrow=classic;html=1;rounded=0;curved=0;jumpStyle=arc;exitX=0.973;exitY=0.333;exitDx=0;exitDy=0;exitPerimeter=0;entryX=0.937;entryY=-0.01;entryDx=0;entryDy=0;entryPerimeter=0;" parent="1" target="38" edge="1">
                    <mxGeometry width="50" height="50" relative="1" as="geometry">
                        <mxPoint x="476.22" y="684.62" as="sourcePoint"/>
                        <mxPoint x="824" y="128" as="targetPoint"/>
                        <Array as="points">
                            <mxPoint x="804" y="684"/>
                            <mxPoint x="804" y="200"/>
                            <mxPoint x="704" y="200"/>
                        </Array>
                    </mxGeometry>
                </mxCell>
                <mxCell id="166" value="Info data kamar" style="edgeLabel;html=1;align=center;verticalAlign=middle;resizable=0;points=[];" parent="160" vertex="1" connectable="0">
                    <mxGeometry x="-0.8124" y="2" relative="1" as="geometry">
                        <mxPoint x="32" y="1" as="offset"/>
                    </mxGeometry>
                </mxCell>
                <mxCell id="170" value="" style="endArrow=classic;html=1;rounded=0;curved=0;jumpStyle=arc;exitX=0.552;exitY=1.003;exitDx=0;exitDy=0;exitPerimeter=0;entryX=0.997;entryY=0.604;entryDx=0;entryDy=0;entryPerimeter=0;" parent="1" source="3" target="38" edge="1">
                    <mxGeometry width="50" height="50" relative="1" as="geometry">
                        <mxPoint x="417.14" y="575.42" as="sourcePoint"/>
                        <mxPoint x="709.5" y="235.75" as="targetPoint"/>
                        <Array as="points">
                            <mxPoint x="417" y="625"/>
                            <mxPoint x="760" y="625"/>
                            <mxPoint x="760" y="240"/>
                        </Array>
                    </mxGeometry>
                </mxCell>
                <mxCell id="172" value="Info data hotel (miliknya)" style="edgeLabel;html=1;align=center;verticalAlign=middle;resizable=0;points=[];" parent="170" vertex="1" connectable="0">
                    <mxGeometry x="-0.665" relative="1" as="geometry">
                        <mxPoint x="49" y="-1" as="offset"/>
                    </mxGeometry>
                </mxCell>
                <mxCell id="178" value="Promotion&lt;div&gt;Codes&lt;/div&gt;" style="html=1;dashed=0;whiteSpace=wrap;shape=partialRectangle;right=0;left=0;" parent="1" vertex="1">
                    <mxGeometry x="730" y="30" width="100" height="30" as="geometry"/>
                </mxCell>
                <mxCell id="181" value="Reservations" style="html=1;dashed=0;whiteSpace=wrap;shape=partialRectangle;right=0;left=0;" parent="1" vertex="1">
                    <mxGeometry x="600" y="815" width="100" height="30" as="geometry"/>
                </mxCell>
                <mxCell id="182" value="Reservation&lt;div&gt;Customers&lt;/div&gt;" style="html=1;dashed=0;whiteSpace=wrap;shape=partialRectangle;right=0;left=0;" parent="1" vertex="1">
                    <mxGeometry x="600" y="865" width="100" height="30" as="geometry"/>
                </mxCell>
                <mxCell id="183" value="Reservation&lt;div&gt;Rooms&lt;/div&gt;" style="html=1;dashed=0;whiteSpace=wrap;shape=partialRectangle;right=0;left=0;" parent="1" vertex="1">
                    <mxGeometry x="600" y="915" width="100" height="30" as="geometry"/>
                </mxCell>
                <mxCell id="185" value="" style="endArrow=classic;html=1;rounded=0;curved=0;jumpStyle=arc;exitX=0;exitY=0.75;exitDx=0;exitDy=0;entryX=0.901;entryY=0.202;entryDx=0;entryDy=0;entryPerimeter=0;" parent="1" source="181" target="7" edge="1">
                    <mxGeometry width="50" height="50" relative="1" as="geometry">
                        <mxPoint x="490" y="930" as="sourcePoint"/>
                        <mxPoint x="540" y="880" as="targetPoint"/>
                    </mxGeometry>
                </mxCell>
                <mxCell id="194" value="Data reservasi" style="edgeLabel;html=1;align=center;verticalAlign=middle;resizable=0;points=[];" parent="185" vertex="1" connectable="0">
                    <mxGeometry x="0.0548" y="-1" relative="1" as="geometry">
                        <mxPoint x="8" y="1" as="offset"/>
                    </mxGeometry>
                </mxCell>
                <mxCell id="186" value="" style="endArrow=classic;html=1;rounded=0;curved=0;jumpStyle=arc;entryX=0;entryY=0.25;entryDx=0;entryDy=0;exitX=1.001;exitY=0.448;exitDx=0;exitDy=0;exitPerimeter=0;" parent="1" source="7" target="182" edge="1">
                    <mxGeometry width="50" height="50" relative="1" as="geometry">
                        <mxPoint x="490" y="970" as="sourcePoint"/>
                        <mxPoint x="540" y="920" as="targetPoint"/>
                    </mxGeometry>
                </mxCell>
                <mxCell id="195" value="Data pelanggan" style="edgeLabel;html=1;align=center;verticalAlign=middle;resizable=0;points=[];" parent="186" vertex="1" connectable="0">
                    <mxGeometry x="-0.3604" relative="1" as="geometry">
                        <mxPoint x="22" as="offset"/>
                    </mxGeometry>
                </mxCell>
                <mxCell id="187" value="" style="endArrow=classic;html=1;rounded=0;curved=0;jumpStyle=arc;exitX=0;exitY=0.75;exitDx=0;exitDy=0;entryX=1.001;entryY=0.548;entryDx=0;entryDy=0;entryPerimeter=0;" parent="1" source="182" target="7" edge="1">
                    <mxGeometry width="50" height="50" relative="1" as="geometry">
                        <mxPoint x="500" y="950" as="sourcePoint"/>
                        <mxPoint x="550" y="900" as="targetPoint"/>
                    </mxGeometry>
                </mxCell>
                <mxCell id="196" value="Data pelanggan" style="edgeLabel;html=1;align=center;verticalAlign=middle;resizable=0;points=[];" parent="187" vertex="1" connectable="0">
                    <mxGeometry x="0.2157" relative="1" as="geometry">
                        <mxPoint x="15" as="offset"/>
                    </mxGeometry>
                </mxCell>
                <mxCell id="188" value="" style="endArrow=classic;html=1;rounded=0;curved=0;jumpStyle=arc;entryX=0;entryY=0.25;entryDx=0;entryDy=0;exitX=0.901;exitY=0.8;exitDx=0;exitDy=0;exitPerimeter=0;" parent="1" source="7" target="183" edge="1">
                    <mxGeometry width="50" height="50" relative="1" as="geometry">
                        <mxPoint x="470" y="922" as="sourcePoint"/>
                        <mxPoint x="520" y="950" as="targetPoint"/>
                    </mxGeometry>
                </mxCell>
                <mxCell id="197" value="Data reservasi kamar" style="edgeLabel;html=1;align=center;verticalAlign=middle;resizable=0;points=[];" parent="188" vertex="1" connectable="0">
                    <mxGeometry x="-0.4773" relative="1" as="geometry">
                        <mxPoint x="31" as="offset"/>
                    </mxGeometry>
                </mxCell>
                <mxCell id="189" value="" style="endArrow=classic;html=1;rounded=0;curved=0;jumpStyle=arc;exitX=0;exitY=0.75;exitDx=0;exitDy=0;entryX=0.809;entryY=0.896;entryDx=0;entryDy=0;entryPerimeter=0;" parent="1" source="183" target="7" edge="1">
                    <mxGeometry width="50" height="50" relative="1" as="geometry">
                        <mxPoint x="400" y="1140" as="sourcePoint"/>
                        <mxPoint x="450" y="1090" as="targetPoint"/>
                    </mxGeometry>
                </mxCell>
                <mxCell id="198" value="&lt;span style=&quot;color: rgb(0, 0, 0);&quot;&gt;Data reservasi kamar&lt;/span&gt;" style="edgeLabel;html=1;align=center;verticalAlign=middle;resizable=0;points=[];" parent="189" vertex="1" connectable="0">
                    <mxGeometry x="-0.072" relative="1" as="geometry">
                        <mxPoint as="offset"/>
                    </mxGeometry>
                </mxCell>
                <mxCell id="192" value="" style="endArrow=classic;html=1;rounded=0;curved=0;jumpStyle=arc;entryX=0.571;entryY=0;entryDx=0;entryDy=0;entryPerimeter=0;exitX=0.398;exitY=-0.011;exitDx=0;exitDy=0;exitPerimeter=0;" parent="1" source="38" target="7" edge="1">
                    <mxGeometry width="50" height="50" relative="1" as="geometry">
                        <mxPoint x="870" y="-81.52001953125" as="sourcePoint"/>
                        <mxPoint x="420" y="800" as="targetPoint"/>
                        <Array as="points">
                            <mxPoint x="650" y="150"/>
                            <mxPoint x="860" y="150"/>
                            <mxPoint x="860" y="800"/>
                            <mxPoint x="420" y="800"/>
                        </Array>
                    </mxGeometry>
                </mxCell>
                <mxCell id="202" value="Update data reservasi" style="edgeLabel;html=1;align=center;verticalAlign=middle;resizable=0;points=[];" parent="192" vertex="1" connectable="0">
                    <mxGeometry x="0.5996" relative="1" as="geometry">
                        <mxPoint x="-74" y="2" as="offset"/>
                    </mxGeometry>
                </mxCell>
                <mxCell id="203" value="Pelanggan" style="html=1;dashed=0;whiteSpace=wrap;" parent="1" vertex="1">
                    <mxGeometry x="70" y="855" width="100" height="50" as="geometry"/>
                </mxCell>
                <mxCell id="210" value="" style="endArrow=classic;html=1;rounded=0;curved=0;jumpStyle=arc;exitX=0.07;exitY=0.243;exitDx=0;exitDy=0;entryX=0.634;entryY=1.009;entryDx=0;entryDy=0;entryPerimeter=0;exitPerimeter=0;" parent="1" source="8" target="203" edge="1">
                    <mxGeometry width="50" height="50" relative="1" as="geometry">
                        <mxPoint x="155" y="915" as="sourcePoint"/>
                        <mxPoint x="371" y="1021" as="targetPoint"/>
                        <Array as="points">
                            <mxPoint x="133" y="1024"/>
                        </Array>
                    </mxGeometry>
                </mxCell>
                <mxCell id="212" value="Konfirmasi transaksi" style="edgeLabel;html=1;align=center;verticalAlign=middle;resizable=0;points=[];" parent="210" vertex="1" connectable="0">
                    <mxGeometry x="-0.1148" relative="1" as="geometry">
                        <mxPoint x="28" as="offset"/>
                    </mxGeometry>
                </mxCell>
                <mxCell id="213" value="Transactions" style="html=1;dashed=0;whiteSpace=wrap;shape=partialRectangle;right=0;left=0;" parent="1" vertex="1">
                    <mxGeometry x="600" y="1000" width="100" height="30" as="geometry"/>
                </mxCell>
                <mxCell id="216" value="Patyment&lt;div&gt;Gateway&lt;/div&gt;" style="html=1;dashed=0;whiteSpace=wrap;" parent="1" vertex="1">
                    <mxGeometry x="70" y="1050" width="100" height="50" as="geometry"/>
                </mxCell>
                <mxCell id="221" value="" style="endArrow=classic;html=1;rounded=0;curved=0;jumpStyle=arc;entryX=0.75;entryY=0;entryDx=0;entryDy=0;exitX=0.987;exitY=0.642;exitDx=0;exitDy=0;exitPerimeter=0;" parent="1" source="31" target="90" edge="1">
                    <mxGeometry width="50" height="50" relative="1" as="geometry">
                        <mxPoint x="490" y="340" as="sourcePoint"/>
                        <mxPoint x="670" y="270" as="targetPoint"/>
                        <Array as="points">
                            <mxPoint x="675" y="350"/>
                        </Array>
                    </mxGeometry>
                </mxCell>
                <mxCell id="222" value="&lt;span style=&quot;color: rgb(0, 0, 0);&quot;&gt;Data daftar hotel organizer&lt;/span&gt;" style="edgeLabel;html=1;align=center;verticalAlign=middle;resizable=0;points=[];" parent="221" vertex="1" connectable="0">
                    <mxGeometry x="-0.3539" y="-1" relative="1" as="geometry">
                        <mxPoint x="8" y="-1" as="offset"/>
                    </mxGeometry>
                </mxCell>
            </root>
        </mxGraphModel>
    </diagram>
</mxfile>